<svg xmlns="http://www.w3.org/2000/svg" xmlns:xlink="http://www.w3.org/1999/xlink" width="500" zoomAndPan="magnify" viewBox="0 0 375 374.999991" height="500" preserveAspectRatio="xMidYMid meet" version="1.0"><defs><clipPath id="f047cc2a5b"><path d="M 302 83 L 345.773438 83 L 345.773438 265 L 302 265 Z M 302 83 " clip-rule="nonzero"/></clipPath><clipPath id="1079cf20d4"><path d="M 144.773438 69 L 182 69 L 182 265 L 144.773438 265 Z M 144.773438 69 " clip-rule="nonzero"/></clipPath><clipPath id="1dfd99f58a"><path d="M 47.335938 90.0625 L 242.335938 90.0625 L 242.335938 285.0625 L 47.335938 285.0625 Z M 47.335938 90.0625 " clip-rule="nonzero"/></clipPath><clipPath id="d0c4541777"><path d="M 196 107 L 242.335938 107 L 242.335938 268 L 196 268 Z M 196 107 " clip-rule="nonzero"/></clipPath><clipPath id="0d36037ec8"><path d="M 150 90.0625 L 183 90.0625 L 183 118 L 150 118 Z M 150 90.0625 " clip-rule="nonzero"/></clipPath><clipPath id="2cf9abb101"><path d="M 149 257 L 183 257 L 183 285.0625 L 149 285.0625 Z M 149 257 " clip-rule="nonzero"/></clipPath></defs><path fill="#6f6ecf" d="M 305.96875 86.074219 L 304.128906 264.527344 C 303.898438 264.207031 273.929688 225.5 273.515625 224.992188 C 271.539062 222.464844 271.3125 219.15625 271.265625 215.984375 C 270.527344 168.082031 269.65625 118.804688 268.964844 73.847656 C 268.964844 73.707031 268.964844 73.523438 269.011719 73.386719 C 269.242188 70.765625 272.09375 69.066406 274.574219 70.351562 Z M 305.96875 86.074219 " fill-opacity="1" fill-rule="nonzero"/><path fill="#3f3e8a" d="M 343.933594 83.867188 L 315.894531 71.273438 C 313.230469 70.078125 310.195312 72.054688 310.242188 74.996094 L 310.378906 86.902344 C 313.6875 89.796875 337.085938 95.453125 343.703125 86.074219 C 344.164062 85.476562 344.484375 84.28125 343.933594 83.867188 Z M 343.933594 83.867188 " fill-opacity="1" fill-rule="nonzero"/><g clip-path="url(#f047cc2a5b)"><path fill="#595ab7" d="M 304.128906 89.152344 L 302.382812 261.492188 C 302.382812 263.515625 304.082031 265.078125 306.105469 264.941406 L 342.050781 261.769531 C 343.796875 261.632812 345.128906 260.160156 345.175781 258.367188 L 345.773438 86.71875 C 345.773438 84.742188 344.117188 83.179688 342.140625 83.316406 L 307.347656 85.796875 C 305.507812 85.9375 304.128906 87.40625 304.128906 89.152344 Z M 304.128906 89.152344 " fill-opacity="1" fill-rule="nonzero"/></g><path fill="#f6f3fe" d="M 336.441406 222.097656 C 336.441406 222.820312 336.371094 223.535156 336.230469 224.242188 C 336.089844 224.949219 335.882812 225.636719 335.605469 226.300781 C 335.328125 226.96875 334.992188 227.601562 334.589844 228.203125 C 334.1875 228.800781 333.734375 229.355469 333.222656 229.867188 C 332.714844 230.375 332.160156 230.832031 331.558594 231.230469 C 330.960938 231.632812 330.328125 231.972656 329.660156 232.246094 C 328.992188 232.523438 328.304688 232.730469 327.597656 232.871094 C 326.890625 233.015625 326.175781 233.085938 325.457031 233.085938 C 324.734375 233.085938 324.019531 233.015625 323.3125 232.871094 C 322.605469 232.730469 321.917969 232.523438 321.253906 232.246094 C 320.585938 231.972656 319.953125 231.632812 319.351562 231.234375 C 318.753906 230.832031 318.199219 230.375 317.6875 229.867188 C 317.179688 229.355469 316.722656 228.800781 316.320312 228.203125 C 315.921875 227.601562 315.582031 226.96875 315.308594 226.300781 C 315.03125 225.636719 314.824219 224.949219 314.683594 224.242188 C 314.539062 223.535156 314.46875 222.820312 314.46875 222.097656 C 314.46875 221.375 314.539062 220.660156 314.683594 219.953125 C 314.824219 219.246094 315.03125 218.558594 315.308594 217.894531 C 315.582031 217.226562 315.921875 216.59375 316.320312 215.992188 C 316.722656 215.394531 317.179688 214.839844 317.6875 214.328125 C 318.199219 213.820312 318.753906 213.363281 319.351562 212.960938 C 319.953125 212.5625 320.585938 212.222656 321.253906 211.945312 C 321.917969 211.671875 322.605469 211.460938 323.3125 211.320312 C 324.019531 211.179688 324.734375 211.109375 325.457031 211.109375 C 326.175781 211.109375 326.890625 211.179688 327.597656 211.320312 C 328.304688 211.460938 328.992188 211.671875 329.660156 211.945312 C 330.328125 212.222656 330.960938 212.5625 331.558594 212.960938 C 332.160156 213.363281 332.714844 213.820312 333.222656 214.328125 C 333.734375 214.839844 334.1875 215.394531 334.589844 215.992188 C 334.992188 216.59375 335.328125 217.226562 335.605469 217.894531 C 335.882812 218.558594 336.089844 219.246094 336.230469 219.953125 C 336.371094 220.660156 336.441406 221.375 336.441406 222.097656 Z M 336.441406 222.097656 " fill-opacity="1" fill-rule="nonzero"/><path fill="#dcd9ea" d="M 312.769531 111.449219 L 311.710938 186.976562 C 311.667969 189.273438 313.875 191.113281 316.445312 190.929688 L 334.648438 189.734375 C 336.945312 189.597656 338.738281 187.894531 338.738281 185.828125 L 339.105469 110.574219 C 339.105469 108.324219 336.992188 106.484375 334.417969 106.621094 L 316.953125 107.542969 C 314.65625 107.679688 312.816406 109.378906 312.769531 111.449219 Z M 312.769531 111.449219 " fill-opacity="1" fill-rule="nonzero"/><path fill="#c6bfe0" d="M 319.203125 122.847656 C 319.160156 121.976562 319.800781 121.242188 320.675781 121.195312 L 331.429688 120.460938 C 332.257812 120.414062 333.039062 121.058594 333.085938 121.929688 C 333.132812 122.804688 332.488281 123.539062 331.613281 123.585938 L 320.859375 124.320312 C 319.941406 124.367188 319.296875 123.675781 319.203125 122.847656 Z M 319.203125 122.847656 " fill-opacity="1" fill-rule="nonzero"/><path fill="#c6bfe0" d="M 319.34375 136.132812 C 319.296875 135.261719 319.941406 134.527344 320.8125 134.480469 L 331.570312 133.746094 C 332.351562 133.699219 333.179688 134.34375 333.222656 135.214844 C 333.269531 136.089844 332.625 136.824219 331.753906 136.871094 L 320.996094 137.605469 C 320.078125 137.652344 319.390625 136.960938 319.34375 136.132812 Z M 319.34375 136.132812 " fill-opacity="1" fill-rule="nonzero"/><path fill="#c6bfe0" d="M 319.800781 149.417969 C 319.757812 148.546875 320.398438 147.8125 321.273438 147.765625 L 332.027344 147.03125 C 332.808594 146.984375 333.636719 147.628906 333.683594 148.5 C 333.730469 149.375 333.085938 150.109375 332.210938 150.15625 L 321.457031 150.890625 C 320.539062 150.9375 319.894531 150.246094 319.800781 149.417969 Z M 319.800781 149.417969 " fill-opacity="1" fill-rule="nonzero"/><path fill="#c6bfe0" d="M 320.308594 162.703125 C 320.261719 161.832031 320.90625 161.097656 321.777344 161.050781 L 332.535156 160.316406 C 333.363281 160.269531 334.144531 160.914062 334.1875 161.785156 C 334.234375 162.660156 333.589844 163.394531 332.71875 163.441406 L 321.960938 164.175781 C 321.042969 164.222656 320.355469 163.53125 320.308594 162.703125 Z M 320.308594 162.703125 " fill-opacity="1" fill-rule="nonzero"/><path fill="#c6bfe0" d="M 320.398438 176.035156 C 320.355469 175.164062 320.996094 174.425781 321.871094 174.382812 L 332.625 173.644531 C 333.40625 173.601562 334.234375 174.242188 334.28125 175.117188 C 334.328125 175.988281 333.683594 176.726562 332.808594 176.773438 L 322.054688 177.507812 C 321.136719 177.507812 320.492188 176.816406 320.398438 176.035156 Z M 320.398438 176.035156 " fill-opacity="1" fill-rule="nonzero"/><path fill="#dcd9ea" d="M 325.457031 233.085938 C 318.792969 233.085938 313.6875 227.152344 314.5625 220.671875 C 315.253906 226.097656 319.847656 230.28125 325.457031 230.28125 C 331.0625 230.28125 335.707031 226.097656 336.394531 220.671875 C 337.222656 227.199219 332.074219 233.085938 325.457031 233.085938 Z M 325.457031 233.085938 " fill-opacity="1" fill-rule="nonzero"/><path fill="#3f3e8a" d="M 288.867188 91.316406 L 288.867188 244.804688 C 285.882812 240.945312 273.882812 225.40625 273.472656 224.992188 C 271.496094 222.464844 271.265625 219.15625 271.21875 215.984375 C 270.484375 168.082031 269.609375 118.804688 268.921875 73.847656 C 268.921875 73.707031 268.921875 73.523438 268.964844 73.386719 C 271.90625 75.132812 284.914062 80.417969 287.078125 82.992188 C 289.238281 85.292969 288.867188 88.695312 288.867188 91.316406 Z M 288.867188 91.316406 " fill-opacity="1" fill-rule="nonzero"/><path fill="#fde77a" d="M 243.042969 86.074219 L 241.203125 264.527344 C 241.019531 264.25 210.820312 225.316406 210.59375 224.992188 C 208.617188 222.464844 208.386719 219.15625 208.339844 215.984375 C 207.972656 192.402344 205.996094 73.664062 206.132812 73.203125 C 206.5 70.675781 209.257812 69.15625 211.648438 70.398438 Z M 243.042969 86.074219 " fill-opacity="1" fill-rule="nonzero"/><path fill="#ef9f27" d="M 281.007812 83.867188 L 252.972656 71.273438 C 250.304688 70.078125 247.269531 72.054688 247.316406 74.996094 L 247.457031 86.902344 C 258.53125 96.507812 287.351562 88.695312 281.007812 83.867188 Z M 281.007812 83.867188 " fill-opacity="1" fill-rule="nonzero"/><path fill="#f8c73b" d="M 241.203125 89.152344 L 239.457031 261.492188 C 239.457031 263.515625 241.160156 265.078125 243.179688 264.941406 L 279.125 261.769531 C 280.871094 261.632812 282.203125 260.160156 282.25 258.367188 L 282.847656 86.71875 C 282.847656 84.742188 281.191406 83.179688 279.214844 83.316406 L 244.375 85.796875 C 242.582031 85.9375 241.203125 87.40625 241.203125 89.152344 Z M 241.203125 89.152344 " fill-opacity="1" fill-rule="nonzero"/><path fill="#f6f3fe" d="M 273.515625 222.097656 C 273.515625 222.820312 273.445312 223.535156 273.304688 224.242188 C 273.164062 224.949219 272.957031 225.636719 272.679688 226.300781 C 272.40625 226.96875 272.066406 227.601562 271.664062 228.203125 C 271.265625 228.800781 270.808594 229.355469 270.300781 229.867188 C 269.789062 230.375 269.234375 230.832031 268.632812 231.230469 C 268.035156 231.632812 267.402344 231.972656 266.734375 232.246094 C 266.070312 232.523438 265.382812 232.730469 264.675781 232.871094 C 263.96875 233.015625 263.253906 233.085938 262.53125 233.085938 C 261.808594 233.085938 261.097656 233.015625 260.386719 232.871094 C 259.679688 232.730469 258.992188 232.523438 258.328125 232.246094 C 257.660156 231.972656 257.027344 231.632812 256.429688 231.234375 C 255.828125 230.832031 255.273438 230.375 254.761719 229.867188 C 254.253906 229.355469 253.796875 228.800781 253.398438 228.203125 C 252.996094 227.601562 252.660156 226.96875 252.382812 226.300781 C 252.105469 225.636719 251.898438 224.949219 251.757812 224.242188 C 251.617188 223.535156 251.546875 222.820312 251.546875 222.097656 C 251.546875 221.375 251.617188 220.660156 251.757812 219.953125 C 251.898438 219.246094 252.105469 218.558594 252.382812 217.894531 C 252.660156 217.226562 252.996094 216.59375 253.398438 215.992188 C 253.796875 215.394531 254.253906 214.839844 254.761719 214.328125 C 255.273438 213.820312 255.828125 213.363281 256.429688 212.960938 C 257.027344 212.5625 257.660156 212.222656 258.328125 211.945312 C 258.992188 211.671875 259.679688 211.460938 260.386719 211.320312 C 261.097656 211.179688 261.808594 211.109375 262.53125 211.109375 C 263.253906 211.109375 263.96875 211.179688 264.675781 211.320312 C 265.382812 211.460938 266.070312 211.671875 266.734375 211.945312 C 267.402344 212.222656 268.035156 212.5625 268.632812 212.960938 C 269.234375 213.363281 269.789062 213.820312 270.300781 214.328125 C 270.808594 214.839844 271.265625 215.394531 271.664062 215.992188 C 272.066406 216.59375 272.40625 217.226562 272.679688 217.894531 C 272.957031 218.558594 273.164062 219.246094 273.304688 219.953125 C 273.445312 220.660156 273.515625 221.375 273.515625 222.097656 Z M 273.515625 222.097656 " fill-opacity="1" fill-rule="nonzero"/><path fill="#dcd9ea" d="M 249.890625 111.449219 L 248.835938 186.976562 C 248.789062 189.273438 250.996094 191.113281 253.570312 190.929688 L 271.769531 189.734375 C 274.070312 189.597656 275.859375 187.894531 275.859375 185.828125 L 276.230469 110.574219 C 276.230469 108.324219 274.113281 106.484375 271.539062 106.621094 L 254.074219 107.542969 C 251.730469 107.679688 249.890625 109.378906 249.890625 111.449219 Z M 249.890625 111.449219 " fill-opacity="1" fill-rule="nonzero"/><path fill="#c6bfe0" d="M 256.328125 122.847656 C 256.28125 121.976562 256.925781 121.242188 257.796875 121.195312 L 268.554688 120.460938 C 269.378906 120.414062 270.160156 121.058594 270.207031 121.929688 C 270.253906 122.804688 269.609375 123.539062 268.738281 123.585938 L 257.980469 124.320312 C 257.0625 124.367188 256.371094 123.675781 256.328125 122.847656 Z M 256.328125 122.847656 " fill-opacity="1" fill-rule="nonzero"/><path fill="#c6bfe0" d="M 256.417969 136.132812 C 256.371094 135.261719 257.015625 134.527344 257.890625 134.480469 L 268.644531 133.746094 C 269.425781 133.699219 270.253906 134.34375 270.300781 135.214844 C 270.34375 136.089844 269.703125 136.824219 268.828125 136.871094 L 258.074219 137.605469 C 257.152344 137.652344 256.511719 136.960938 256.417969 136.132812 Z M 256.417969 136.132812 " fill-opacity="1" fill-rule="nonzero"/><path fill="#c6bfe0" d="M 256.925781 149.417969 C 256.878906 148.546875 257.519531 147.8125 258.394531 147.765625 L 269.148438 147.03125 C 269.933594 146.984375 270.757812 147.628906 270.804688 148.5 C 270.851562 149.375 270.207031 150.109375 269.335938 150.15625 L 258.578125 150.890625 C 257.660156 150.9375 256.96875 150.246094 256.925781 149.417969 Z M 256.925781 149.417969 " fill-opacity="1" fill-rule="nonzero"/><path fill="#c6bfe0" d="M 257.382812 162.703125 C 257.335938 161.832031 257.980469 161.097656 258.855469 161.050781 L 269.609375 160.316406 C 270.4375 160.269531 271.21875 160.914062 271.265625 161.785156 C 271.3125 162.660156 270.667969 163.394531 269.792969 163.441406 L 259.039062 164.175781 C 258.117188 164.222656 257.429688 163.53125 257.382812 162.703125 Z M 257.382812 162.703125 " fill-opacity="1" fill-rule="nonzero"/><path fill="#c6bfe0" d="M 257.519531 176.035156 C 257.476562 175.164062 258.117188 174.425781 258.992188 174.382812 L 269.746094 173.644531 C 270.527344 173.601562 271.355469 174.242188 271.402344 175.117188 C 271.449219 175.988281 270.804688 176.726562 269.933594 176.773438 L 259.175781 177.507812 C 258.257812 177.507812 257.566406 176.816406 257.519531 176.035156 Z M 257.519531 176.035156 " fill-opacity="1" fill-rule="nonzero"/><path fill="#dcd9ea" d="M 262.53125 233.085938 C 255.867188 233.085938 250.765625 227.152344 251.636719 220.671875 C 252.328125 226.097656 256.925781 230.28125 262.53125 230.28125 C 268.140625 230.28125 272.78125 226.097656 273.472656 220.671875 C 274.296875 227.199219 269.195312 233.085938 262.53125 233.085938 Z M 262.53125 233.085938 " fill-opacity="1" fill-rule="nonzero"/><path fill="#fab041" d="M 226.3125 91.269531 L 226.3125 245.21875 C 224.839844 243.382812 211.191406 225.683594 210.59375 224.949219 C 208.617188 222.417969 208.386719 219.109375 208.339844 215.9375 C 207.972656 192.355469 205.996094 73.617188 206.132812 73.15625 C 205.949219 73.847656 221.945312 79.867188 224.566406 82.949219 C 226.632812 85.476562 226.3125 88.234375 226.3125 91.269531 Z M 226.3125 91.269531 " fill-opacity="1" fill-rule="nonzero"/><g clip-path="url(#1079cf20d4)"><path fill="#f56357" d="M 181.863281 86.027344 L 180.027344 264.480469 C 179.796875 264.160156 149.964844 225.636719 149.414062 224.949219 C 147.4375 222.417969 147.253906 219.015625 147.164062 215.9375 C 147.164062 215.84375 144.957031 80.695312 144.863281 73.800781 C 144.773438 70.902344 147.851562 68.972656 150.425781 70.304688 Z M 181.863281 86.027344 " fill-opacity="1" fill-rule="nonzero"/></g><path fill="#e11a17" d="M 219.832031 83.867188 L 191.792969 71.273438 C 189.128906 70.078125 186.09375 72.054688 186.140625 74.996094 L 186.277344 86.902344 C 194.046875 93.566406 227.964844 90.027344 219.832031 83.867188 Z M 219.832031 83.867188 " fill-opacity="1" fill-rule="nonzero"/><path fill="#f34036" d="M 180.027344 89.152344 L 178.28125 261.492188 C 178.28125 263.515625 179.980469 265.078125 182.003906 264.941406 L 217.945312 261.769531 C 219.691406 261.632812 221.027344 260.160156 221.070312 258.367188 L 221.667969 86.71875 C 221.667969 84.742188 220.015625 83.179688 218.039062 83.316406 L 183.242188 85.796875 C 181.40625 85.9375 180.027344 87.40625 180.027344 89.152344 Z M 180.027344 89.152344 " fill-opacity="1" fill-rule="nonzero"/><path fill="#f6f3fe" d="M 212.386719 222.097656 C 212.386719 222.820312 212.316406 223.535156 212.171875 224.242188 C 212.03125 224.949219 211.824219 225.636719 211.546875 226.300781 C 211.273438 226.96875 210.933594 227.601562 210.535156 228.203125 C 210.132812 228.800781 209.675781 229.355469 209.167969 229.867188 C 208.65625 230.375 208.101562 230.832031 207.503906 231.230469 C 206.902344 231.632812 206.269531 231.972656 205.601562 232.246094 C 204.9375 232.523438 204.25 232.730469 203.542969 232.871094 C 202.835938 233.015625 202.121094 233.085938 201.398438 233.085938 C 200.679688 233.085938 199.964844 233.015625 199.257812 232.871094 C 198.550781 232.730469 197.863281 232.523438 197.195312 232.246094 C 196.527344 231.972656 195.894531 231.632812 195.296875 231.234375 C 194.695312 230.832031 194.140625 230.375 193.632812 229.867188 C 193.121094 229.355469 192.667969 228.800781 192.265625 228.203125 C 191.863281 227.601562 191.527344 226.96875 191.25 226.300781 C 190.972656 225.636719 190.765625 224.949219 190.625 224.242188 C 190.484375 223.535156 190.414062 222.820312 190.414062 222.097656 C 190.414062 221.375 190.484375 220.660156 190.625 219.953125 C 190.765625 219.246094 190.972656 218.558594 191.25 217.894531 C 191.527344 217.226562 191.863281 216.59375 192.265625 215.992188 C 192.667969 215.394531 193.121094 214.839844 193.632812 214.328125 C 194.140625 213.820312 194.695312 213.363281 195.296875 212.960938 C 195.894531 212.5625 196.527344 212.222656 197.195312 211.945312 C 197.863281 211.671875 198.550781 211.460938 199.257812 211.320312 C 199.964844 211.179688 200.679688 211.109375 201.398438 211.109375 C 202.121094 211.109375 202.835938 211.179688 203.542969 211.320312 C 204.25 211.460938 204.9375 211.671875 205.601562 211.945312 C 206.269531 212.222656 206.902344 212.5625 207.503906 212.960938 C 208.101562 213.363281 208.65625 213.820312 209.167969 214.328125 C 209.675781 214.839844 210.132812 215.394531 210.535156 215.992188 C 210.933594 216.59375 211.273438 217.226562 211.546875 217.894531 C 211.824219 218.558594 212.03125 219.246094 212.171875 219.953125 C 212.316406 220.660156 212.386719 221.375 212.386719 222.097656 Z M 212.386719 222.097656 " fill-opacity="1" fill-rule="nonzero"/><path fill="#dcd9ea" d="M 201.355469 233.128906 C 194.6875 233.128906 189.585938 227.199219 190.460938 220.71875 C 191.148438 226.144531 195.746094 230.324219 201.355469 230.324219 C 206.960938 230.324219 211.601562 226.144531 212.292969 220.71875 C 213.167969 227.246094 208.019531 233.128906 201.355469 233.128906 Z M 201.355469 233.128906 " fill-opacity="1" fill-rule="nonzero"/><path fill="#dcd9ea" d="M 188.714844 111.449219 L 187.65625 186.976562 C 187.609375 189.273438 189.816406 191.113281 192.390625 190.929688 L 210.59375 189.734375 C 212.890625 189.597656 214.683594 187.894531 214.683594 185.828125 L 215.050781 110.574219 C 215.050781 108.324219 212.9375 106.484375 210.363281 106.621094 L 192.894531 107.542969 C 190.550781 107.679688 188.757812 109.378906 188.714844 111.449219 Z M 188.714844 111.449219 " fill-opacity="1" fill-rule="nonzero"/><path fill="#c6bfe0" d="M 196.710938 124.320312 C 195.882812 124.320312 195.195312 123.675781 195.148438 122.847656 C 195.101562 121.976562 195.746094 121.242188 196.621094 121.195312 L 207.375 120.460938 C 208.15625 120.414062 208.984375 121.058594 209.03125 121.929688 C 209.074219 122.804688 208.433594 123.539062 207.558594 123.585938 L 196.804688 124.320312 C 196.757812 124.320312 196.757812 124.320312 196.710938 124.320312 Z M 196.710938 124.320312 " fill-opacity="1" fill-rule="nonzero"/><path fill="#c6bfe0" d="M 196.847656 137.605469 C 196.023438 137.605469 195.332031 136.960938 195.285156 136.132812 C 195.242188 135.261719 195.882812 134.527344 196.757812 134.480469 L 207.511719 133.746094 C 208.339844 133.699219 209.121094 134.34375 209.167969 135.214844 C 209.214844 136.089844 208.570312 136.824219 207.695312 136.871094 L 196.941406 137.605469 C 196.894531 137.605469 196.847656 137.605469 196.847656 137.605469 Z M 196.847656 137.605469 " fill-opacity="1" fill-rule="nonzero"/><path fill="#c6bfe0" d="M 197.308594 150.890625 C 196.480469 150.890625 195.792969 150.246094 195.746094 149.417969 C 195.699219 148.546875 196.34375 147.8125 197.21875 147.765625 L 207.972656 147.03125 C 208.753906 146.984375 209.582031 147.628906 209.628906 148.5 C 209.671875 149.375 209.03125 150.109375 208.15625 150.15625 L 197.402344 150.890625 C 197.355469 150.890625 197.355469 150.890625 197.308594 150.890625 Z M 197.308594 150.890625 " fill-opacity="1" fill-rule="nonzero"/><path fill="#c6bfe0" d="M 197.769531 164.175781 C 196.941406 164.175781 196.25 163.53125 196.207031 162.703125 C 196.160156 161.832031 196.804688 161.097656 197.675781 161.050781 L 208.433594 160.316406 C 209.214844 160.269531 210.039062 160.914062 210.085938 161.785156 C 210.132812 162.660156 209.488281 163.394531 208.617188 163.441406 L 197.859375 164.175781 C 197.859375 164.175781 197.8125 164.175781 197.769531 164.175781 Z M 197.769531 164.175781 " fill-opacity="1" fill-rule="nonzero"/><path fill="#c6bfe0" d="M 197.90625 177.460938 C 197.078125 177.460938 196.390625 176.816406 196.34375 175.988281 C 196.296875 175.117188 196.941406 174.382812 197.8125 174.335938 L 208.570312 173.601562 C 209.398438 173.554688 210.179688 174.199219 210.222656 175.070312 C 210.269531 175.945312 209.628906 176.679688 208.753906 176.726562 L 198 177.460938 C 198 177.460938 197.953125 177.460938 197.90625 177.460938 Z M 197.90625 177.460938 " fill-opacity="1" fill-rule="nonzero"/><path fill="#ffffff" d="M 152.722656 193.273438 C 154.839844 186.378906 162.789062 184.679688 167.433594 190.65625 C 169.316406 193.089844 170.097656 196.214844 170.28125 199.34375 C 170.605469 204.8125 167.339844 213.085938 160.398438 210.511719 C 154.378906 208.261719 150.929688 199.160156 152.722656 193.273438 Z M 152.722656 193.273438 " fill-opacity="0.41" fill-rule="nonzero"/><path fill="#ffffff" d="M 153.089844 171.300781 C 154.378906 167.117188 159.203125 166.105469 162.007812 169.738281 C 163.15625 171.210938 163.617188 173.140625 163.753906 174.980469 C 163.9375 178.289062 161.960938 183.300781 157.78125 181.734375 C 154.058594 180.402344 151.988281 174.886719 153.089844 171.300781 Z M 153.089844 171.300781 " fill-opacity="0.41" fill-rule="nonzero"/><g clip-path="url(#1dfd99f58a)"><path fill="#bed8fb" d="M 242.335938 203.8125 L 242.335938 171.3125 L 231.429688 171.3125 C 230.488281 171.328125 229.566406 171.191406 228.667969 170.910156 C 227.769531 170.625 226.9375 170.207031 226.171875 169.652344 C 225.410156 169.101562 224.753906 168.441406 224.203125 167.675781 C 223.652344 166.910156 223.238281 166.078125 222.957031 165.179688 C 221.234375 159.183594 218.847656 153.464844 215.796875 148.027344 C 215.371094 147.21875 215.082031 146.363281 214.929688 145.457031 C 214.78125 144.554688 214.777344 143.652344 214.917969 142.75 C 215.0625 141.84375 215.34375 140.988281 215.765625 140.175781 C 216.1875 139.363281 216.726562 138.636719 217.382812 138 L 225.261719 130.117188 L 202.285156 107.125 L 194.40625 115.015625 C 193.769531 115.675781 193.046875 116.21875 192.234375 116.644531 C 191.421875 117.070312 190.5625 117.355469 189.660156 117.503906 C 188.753906 117.648438 187.847656 117.648438 186.945312 117.5 C 186.039062 117.351562 185.183594 117.066406 184.371094 116.640625 C 178.929688 113.589844 173.214844 111.203125 167.21875 109.480469 C 166.316406 109.199219 165.480469 108.78125 164.710938 108.230469 C 163.945312 107.675781 163.28125 107.015625 162.730469 106.246094 C 162.175781 105.480469 161.757812 104.644531 161.476562 103.742188 C 161.195312 102.835938 161.066406 101.910156 161.085938 100.964844 L 161.085938 90.0625 L 128.585938 90.0625 L 128.585938 100.964844 C 128.597656 101.910156 128.464844 102.828125 128.179688 103.730469 C 127.898438 104.628906 127.480469 105.460938 126.925781 106.222656 C 126.375 106.988281 125.714844 107.644531 124.949219 108.195312 C 124.183594 108.746094 123.351562 109.160156 122.449219 109.441406 C 116.457031 111.164062 110.738281 113.546875 105.296875 116.597656 C 104.488281 117.023438 103.628906 117.3125 102.722656 117.460938 C 101.820312 117.609375 100.914062 117.609375 100.007812 117.460938 C 99.105469 117.316406 98.246094 117.027344 97.433594 116.601562 C 96.621094 116.175781 95.898438 115.632812 95.261719 114.972656 L 87.382812 107.125 L 64.398438 130.109375 L 72.277344 137.992188 C 72.9375 138.625 73.480469 139.351562 73.90625 140.164062 C 74.332031 140.972656 74.621094 141.832031 74.765625 142.738281 C 74.914062 143.640625 74.910156 144.546875 74.765625 145.453125 C 74.617188 146.355469 74.328125 147.214844 73.902344 148.027344 C 70.851562 153.464844 68.46875 159.183594 66.746094 165.179688 C 66.464844 166.082031 66.046875 166.914062 65.492188 167.683594 C 64.941406 168.449219 64.28125 169.109375 63.515625 169.664062 C 62.746094 170.21875 61.914062 170.632812 61.011719 170.917969 C 60.109375 171.199219 59.183594 171.332031 58.238281 171.3125 L 47.335938 171.3125 L 47.335938 203.8125 L 58.238281 203.8125 C 59.179688 203.796875 60.101562 203.933594 61 204.214844 C 61.898438 204.5 62.730469 204.917969 63.496094 205.46875 C 64.257812 206.023438 64.914062 206.683594 65.464844 207.449219 C 66.015625 208.214844 66.433594 209.046875 66.710938 209.945312 C 68.433594 215.941406 70.820312 221.65625 73.871094 227.097656 C 74.296875 227.910156 74.585938 228.769531 74.730469 229.671875 C 74.878906 230.578125 74.878906 231.480469 74.734375 232.386719 C 74.585938 233.292969 74.300781 234.148438 73.875 234.960938 C 73.449219 235.773438 72.90625 236.496094 72.246094 237.132812 L 64.363281 245.015625 L 87.382812 268 L 95.261719 260.117188 C 95.902344 259.460938 96.625 258.921875 97.441406 258.5 C 98.253906 258.078125 99.113281 257.792969 100.015625 257.652344 C 100.921875 257.507812 101.824219 257.511719 102.730469 257.664062 C 103.632812 257.816406 104.488281 258.105469 105.296875 258.535156 C 110.738281 261.582031 116.457031 263.96875 122.449219 265.691406 C 123.347656 265.972656 124.179688 266.386719 124.945312 266.9375 C 125.710938 267.488281 126.371094 268.144531 126.921875 268.90625 C 127.476562 269.667969 127.894531 270.5 128.179688 271.398438 C 128.460938 272.296875 128.597656 273.214844 128.585938 274.160156 L 128.585938 285.0625 L 161.085938 285.0625 L 161.085938 274.160156 C 161.070312 273.214844 161.203125 272.292969 161.488281 271.394531 C 161.769531 270.496094 162.191406 269.664062 162.742188 268.902344 C 163.296875 268.136719 163.953125 267.480469 164.71875 266.929688 C 165.484375 266.378906 166.320312 265.964844 167.21875 265.683594 C 173.214844 263.960938 178.929688 261.574219 184.371094 258.527344 C 185.179688 258.097656 186.035156 257.808594 186.941406 257.65625 C 187.84375 257.503906 188.746094 257.5 189.652344 257.644531 C 190.558594 257.785156 191.414062 258.070312 192.230469 258.492188 C 193.042969 258.914062 193.765625 259.453125 194.40625 260.109375 L 202.285156 267.992188 L 225.273438 245.015625 L 217.390625 237.132812 C 216.734375 236.496094 216.191406 235.769531 215.769531 234.957031 C 215.347656 234.144531 215.066406 233.285156 214.925781 232.378906 C 214.78125 231.476562 214.785156 230.570312 214.9375 229.667969 C 215.085938 228.765625 215.378906 227.90625 215.804688 227.097656 C 218.855469 221.65625 221.242188 215.941406 222.964844 209.945312 C 223.246094 209.046875 223.660156 208.214844 224.210938 207.449219 C 224.757812 206.683594 225.414062 206.027344 226.179688 205.472656 C 226.941406 204.921875 227.773438 204.5 228.671875 204.21875 C 229.566406 203.933594 230.488281 203.796875 231.429688 203.8125 Z M 242.335938 203.8125 " fill-opacity="1" fill-rule="nonzero"/></g><path fill="#9dc6fb" d="M 84.199219 115.015625 C 84.832031 115.675781 85.554688 116.21875 86.367188 116.644531 C 87.179688 117.070312 88.039062 117.355469 88.941406 117.503906 C 89.847656 117.648438 90.753906 117.648438 91.65625 117.5 C 92.5625 117.351562 93.421875 117.066406 94.230469 116.640625 C 94.855469 116.289062 95.523438 116.03125 96.15625 115.703125 C 95.847656 115.503906 95.550781 115.289062 95.261719 115.054688 L 87.382812 107.125 L 81.847656 112.65625 Z M 84.199219 115.015625 " fill-opacity="1" fill-rule="nonzero"/><g clip-path="url(#d0c4541777)"><path fill="#9dc6fb" d="M 231.429688 171.3125 C 230.488281 171.328125 229.566406 171.191406 228.667969 170.910156 C 227.769531 170.625 226.9375 170.207031 226.171875 169.652344 C 225.410156 169.101562 224.753906 168.441406 224.203125 167.675781 C 223.652344 166.910156 223.238281 166.078125 222.957031 165.179688 C 221.234375 159.183594 218.847656 153.464844 215.796875 148.027344 C 215.371094 147.21875 215.082031 146.363281 214.929688 145.457031 C 214.78125 144.554688 214.777344 143.652344 214.917969 142.75 C 215.0625 141.84375 215.34375 140.988281 215.765625 140.175781 C 216.1875 139.363281 216.726562 138.636719 217.382812 138 L 225.261719 130.117188 L 202.285156 107.125 L 196.753906 112.65625 L 214.207031 130.109375 L 206.316406 137.992188 C 205.65625 138.625 205.113281 139.351562 204.6875 140.164062 C 204.261719 140.972656 203.972656 141.832031 203.828125 142.738281 C 203.679688 143.640625 203.683594 144.546875 203.828125 145.453125 C 203.976562 146.355469 204.265625 147.214844 204.691406 148.027344 C 207.742188 153.464844 210.128906 159.183594 211.847656 165.179688 C 212.132812 166.085938 212.550781 166.921875 213.105469 167.691406 C 213.660156 168.460938 214.324219 169.121094 215.097656 169.675781 C 215.867188 170.230469 216.707031 170.644531 217.613281 170.925781 C 218.519531 171.207031 219.449219 171.335938 220.398438 171.3125 L 231.300781 171.3125 L 231.300781 203.8125 L 220.398438 203.8125 C 219.453125 203.796875 218.53125 203.933594 217.632812 204.214844 C 216.734375 204.5 215.902344 204.917969 215.140625 205.46875 C 214.375 206.023438 213.71875 206.683594 213.167969 207.449219 C 212.617188 208.214844 212.203125 209.046875 211.921875 209.945312 C 210.199219 215.941406 207.8125 221.65625 204.765625 227.097656 C 204.335938 227.910156 204.050781 228.769531 203.902344 229.671875 C 203.753906 230.578125 203.753906 231.480469 203.902344 232.386719 C 204.046875 233.292969 204.332031 234.148438 204.757812 234.960938 C 205.183594 235.773438 205.726562 236.496094 206.390625 237.132812 L 214.277344 245.015625 L 196.753906 262.464844 L 202.285156 267.992188 L 225.273438 245.015625 L 217.390625 237.132812 C 216.734375 236.496094 216.191406 235.769531 215.769531 234.957031 C 215.347656 234.144531 215.066406 233.285156 214.925781 232.378906 C 214.78125 231.476562 214.785156 230.570312 214.9375 229.667969 C 215.085938 228.765625 215.378906 227.90625 215.804688 227.097656 C 218.855469 221.65625 221.242188 215.941406 222.964844 209.945312 C 223.246094 209.046875 223.660156 208.214844 224.210938 207.449219 C 224.757812 206.683594 225.414062 206.027344 226.179688 205.472656 C 226.941406 204.921875 227.773438 204.5 228.671875 204.21875 C 229.566406 203.933594 230.488281 203.796875 231.429688 203.8125 L 242.335938 203.8125 L 242.335938 171.3125 Z M 231.429688 171.3125 " fill-opacity="1" fill-rule="nonzero"/></g><g clip-path="url(#0d36037ec8)"><path fill="#9dc6fb" d="M 156.152344 109.441406 C 162.148438 111.164062 167.863281 113.546875 173.304688 116.597656 C 174.027344 116.976562 174.789062 117.246094 175.59375 117.398438 C 176.394531 117.554688 177.203125 117.589844 178.015625 117.507812 C 178.828125 117.421875 179.609375 117.222656 180.367188 116.910156 C 181.121094 116.597656 181.8125 116.183594 182.445312 115.664062 C 177.582031 113.066406 172.507812 110.992188 167.21875 109.441406 C 166.320312 109.160156 165.484375 108.746094 164.71875 108.195312 C 163.953125 107.644531 163.296875 106.988281 162.742188 106.222656 C 162.191406 105.460938 161.769531 104.628906 161.488281 103.730469 C 161.203125 102.828125 161.070312 101.910156 161.085938 100.964844 L 161.085938 90.0625 L 150.019531 90.0625 L 150.019531 100.964844 C 150.003906 101.910156 150.136719 102.828125 150.421875 103.730469 C 150.703125 104.628906 151.125 105.460938 151.675781 106.222656 C 152.230469 106.988281 152.886719 107.644531 153.652344 108.195312 C 154.417969 108.746094 155.253906 109.160156 156.152344 109.441406 Z M 156.152344 109.441406 " fill-opacity="1" fill-rule="nonzero"/></g><path fill="#9dc6fb" d="M 94.230469 258.527344 C 93.421875 258.097656 92.566406 257.808594 91.664062 257.65625 C 90.757812 257.503906 89.855469 257.5 88.949219 257.644531 C 88.046875 257.785156 87.1875 258.070312 86.375 258.492188 C 85.558594 258.914062 84.835938 259.453125 84.199219 260.109375 L 81.847656 262.464844 L 87.382812 267.992188 L 95.261719 260.109375 C 95.550781 259.878906 95.847656 259.660156 96.15625 259.460938 C 95.523438 259.136719 94.855469 258.875 94.230469 258.527344 Z M 94.230469 258.527344 " fill-opacity="1" fill-rule="nonzero"/><g clip-path="url(#2cf9abb101)"><path fill="#9dc6fb" d="M 173.273438 258.527344 C 167.832031 261.574219 162.113281 263.960938 156.121094 265.683594 C 155.21875 265.964844 154.386719 266.378906 153.621094 266.929688 C 152.855469 267.480469 152.195312 268.136719 151.644531 268.902344 C 151.089844 269.664062 150.671875 270.496094 150.390625 271.394531 C 150.105469 272.292969 149.972656 273.214844 149.984375 274.160156 L 149.984375 285.0625 L 161.085938 285.0625 L 161.085938 274.160156 C 161.070312 273.214844 161.203125 272.292969 161.488281 271.394531 C 161.769531 270.496094 162.191406 269.664062 162.742188 268.902344 C 163.296875 268.136719 163.953125 267.480469 164.71875 266.929688 C 165.484375 266.378906 166.320312 265.964844 167.21875 265.683594 C 172.507812 264.132812 177.582031 262.058594 182.445312 259.460938 C 181.8125 258.9375 181.117188 258.519531 180.359375 258.207031 C 179.601562 257.890625 178.816406 257.691406 178 257.609375 C 177.183594 257.523438 176.371094 257.5625 175.566406 257.71875 C 174.761719 257.875 173.996094 258.144531 173.273438 258.527344 Z M 173.273438 258.527344 " fill-opacity="1" fill-rule="nonzero"/></g><path fill="#95d6a4" d="M 201.710938 187.5625 C 201.710938 189.425781 201.617188 191.28125 201.433594 193.136719 C 201.253906 194.992188 200.980469 196.832031 200.617188 198.65625 C 200.253906 200.484375 199.800781 202.289062 199.261719 204.070312 C 198.71875 205.855469 198.09375 207.605469 197.378906 209.328125 C 196.667969 211.046875 195.871094 212.730469 194.992188 214.371094 C 194.117188 216.015625 193.160156 217.613281 192.125 219.160156 C 191.089844 220.710938 189.980469 222.203125 188.800781 223.644531 C 187.617188 225.082031 186.367188 226.460938 185.050781 227.777344 C 183.734375 229.097656 182.355469 230.34375 180.914062 231.527344 C 179.476562 232.707031 177.980469 233.816406 176.433594 234.851562 C 174.882812 235.886719 173.289062 236.84375 171.644531 237.722656 C 170.003906 238.597656 168.320312 239.394531 166.597656 240.109375 C 164.878906 240.820312 163.125 241.449219 161.34375 241.988281 C 159.5625 242.527344 157.757812 242.980469 155.929688 243.34375 C 154.101562 243.707031 152.261719 243.980469 150.410156 244.164062 C 148.554688 244.347656 146.695312 244.4375 144.835938 244.4375 C 142.972656 244.4375 141.113281 244.347656 139.257812 244.164062 C 137.40625 243.980469 135.566406 243.707031 133.738281 243.34375 C 131.910156 242.980469 130.105469 242.527344 128.324219 241.988281 C 126.542969 241.449219 124.789062 240.820312 123.070312 240.109375 C 121.347656 239.394531 119.667969 238.597656 118.023438 237.722656 C 116.378906 236.84375 114.785156 235.886719 113.234375 234.851562 C 111.6875 233.816406 110.191406 232.707031 108.753906 231.527344 C 107.3125 230.34375 105.933594 229.097656 104.617188 227.777344 C 103.300781 226.460938 102.050781 225.082031 100.871094 223.644531 C 99.6875 222.203125 98.578125 220.710938 97.542969 219.160156 C 96.507812 217.613281 95.554688 216.015625 94.675781 214.371094 C 93.796875 212.730469 93 211.046875 92.289062 209.328125 C 91.574219 207.605469 90.949219 205.855469 90.410156 204.070312 C 89.867188 202.289062 89.414062 200.484375 89.050781 198.65625 C 88.6875 196.832031 88.414062 194.992188 88.234375 193.136719 C 88.050781 191.28125 87.960938 189.425781 87.960938 187.5625 C 87.960938 185.699219 88.050781 183.839844 88.234375 181.988281 C 88.414062 180.132812 88.6875 178.292969 89.050781 176.464844 C 89.414062 174.640625 89.867188 172.835938 90.410156 171.050781 C 90.949219 169.269531 91.574219 167.519531 92.289062 165.796875 C 93 164.074219 93.796875 162.394531 94.675781 160.75 C 95.554688 159.109375 96.507812 157.511719 97.542969 155.964844 C 98.578125 154.414062 99.6875 152.921875 100.871094 151.480469 C 102.050781 150.042969 103.300781 148.664062 104.617188 147.34375 C 105.933594 146.027344 107.3125 144.777344 108.753906 143.597656 C 110.191406 142.414062 111.6875 141.308594 113.234375 140.273438 C 114.785156 139.238281 116.378906 138.28125 118.023438 137.402344 C 119.667969 136.523438 121.347656 135.730469 123.070312 135.015625 C 124.789062 134.304688 126.542969 133.675781 128.324219 133.136719 C 130.105469 132.59375 131.910156 132.144531 133.738281 131.78125 C 135.566406 131.417969 137.40625 131.144531 139.257812 130.960938 C 141.113281 130.777344 142.972656 130.6875 144.835938 130.6875 C 146.695312 130.6875 148.554688 130.777344 150.410156 130.960938 C 152.261719 131.144531 154.101562 131.417969 155.929688 131.78125 C 157.757812 132.144531 159.5625 132.59375 161.34375 133.136719 C 163.125 133.675781 164.878906 134.304688 166.597656 135.015625 C 168.320312 135.730469 170.003906 136.523438 171.644531 137.402344 C 173.289062 138.28125 174.882812 139.238281 176.433594 140.273438 C 177.980469 141.308594 179.476562 142.414062 180.914062 143.597656 C 182.355469 144.777344 183.734375 146.027344 185.050781 147.34375 C 186.367188 148.664062 187.617188 150.042969 188.800781 151.480469 C 189.980469 152.921875 191.089844 154.414062 192.125 155.964844 C 193.160156 157.511719 194.117188 159.109375 194.992188 160.75 C 195.871094 162.394531 196.667969 164.074219 197.378906 165.796875 C 198.09375 167.519531 198.71875 169.269531 199.261719 171.050781 C 199.800781 172.835938 200.253906 174.640625 200.617188 176.464844 C 200.980469 178.292969 201.253906 180.132812 201.433594 181.988281 C 201.617188 183.839844 201.710938 185.699219 201.710938 187.5625 Z M 201.710938 187.5625 " fill-opacity="1" fill-rule="nonzero"/><path fill="#78c2a4" d="M 144.835938 130.6875 C 142.855469 130.6875 140.878906 130.789062 138.910156 130.996094 C 140.640625 131.175781 142.359375 131.4375 144.0625 131.773438 C 145.769531 132.113281 147.457031 132.53125 149.125 133.023438 C 150.792969 133.515625 152.433594 134.085938 154.046875 134.726562 C 155.664062 135.371094 157.246094 136.089844 158.796875 136.878906 C 160.34375 137.664062 161.855469 138.523438 163.328125 139.453125 C 164.796875 140.378906 166.222656 141.371094 167.601562 142.429688 C 168.984375 143.488281 170.3125 144.605469 171.589844 145.789062 C 172.867188 146.96875 174.085938 148.203125 175.25 149.496094 C 176.414062 150.789062 177.515625 152.128906 178.558594 153.523438 C 179.597656 154.917969 180.574219 156.355469 181.480469 157.835938 C 182.390625 159.320312 183.230469 160.839844 184 162.398438 C 184.769531 163.957031 185.464844 165.550781 186.085938 167.171875 C 186.710938 168.796875 187.257812 170.445312 187.730469 172.121094 C 188.203125 173.792969 188.597656 175.484375 188.914062 177.195312 C 189.230469 178.902344 189.46875 180.625 189.628906 182.355469 C 189.789062 184.089844 189.867188 185.824219 189.867188 187.5625 C 189.867188 189.300781 189.789062 191.035156 189.628906 192.769531 C 189.46875 194.5 189.230469 196.21875 188.914062 197.929688 C 188.597656 199.640625 188.203125 201.332031 187.730469 203.003906 C 187.257812 204.679688 186.710938 206.328125 186.085938 207.949219 C 185.464844 209.574219 184.769531 211.164062 184 212.726562 C 183.230469 214.285156 182.390625 215.804688 181.480469 217.289062 C 180.574219 218.769531 179.597656 220.207031 178.558594 221.601562 C 177.515625 222.996094 176.414062 224.335938 175.25 225.628906 C 174.085938 226.921875 172.867188 228.15625 171.589844 229.335938 C 170.3125 230.515625 168.984375 231.636719 167.601562 232.695312 C 166.222656 233.753906 164.796875 234.746094 163.328125 235.671875 C 161.855469 236.601562 160.34375 237.457031 158.796875 238.246094 C 157.246094 239.035156 155.664062 239.753906 154.046875 240.394531 C 152.433594 241.039062 150.792969 241.609375 149.125 242.101562 C 147.457031 242.59375 145.769531 243.011719 144.0625 243.347656 C 142.359375 243.6875 140.640625 243.949219 138.910156 244.128906 C 139.867188 244.226562 140.824219 244.304688 141.785156 244.355469 C 142.746094 244.40625 143.707031 244.433594 144.667969 244.4375 C 145.628906 244.441406 146.59375 244.417969 147.550781 244.371094 C 148.511719 244.324219 149.472656 244.253906 150.429688 244.160156 C 151.386719 244.066406 152.339844 243.949219 153.289062 243.804688 C 154.242188 243.660156 155.1875 243.492188 156.132812 243.304688 C 157.074219 243.113281 158.011719 242.898438 158.941406 242.660156 C 159.875 242.417969 160.796875 242.15625 161.71875 241.871094 C 162.636719 241.585938 163.546875 241.277344 164.449219 240.945312 C 165.351562 240.613281 166.246094 240.261719 167.128906 239.882812 C 168.015625 239.507812 168.890625 239.105469 169.753906 238.683594 C 170.617188 238.265625 171.46875 237.820312 172.3125 237.355469 C 173.15625 236.890625 173.984375 236.40625 174.800781 235.898438 C 175.617188 235.390625 176.421875 234.863281 177.214844 234.316406 C 178.003906 233.769531 178.78125 233.203125 179.542969 232.617188 C 180.304688 232.027344 181.050781 231.421875 181.78125 230.796875 C 182.511719 230.171875 183.226562 229.53125 183.925781 228.867188 C 184.625 228.207031 185.304688 227.53125 185.96875 226.835938 C 186.632812 226.136719 187.277344 225.425781 187.90625 224.699219 C 188.535156 223.96875 189.144531 223.226562 189.734375 222.464844 C 190.324219 221.707031 190.894531 220.933594 191.445312 220.144531 C 191.996094 219.355469 192.527344 218.554688 193.039062 217.742188 C 193.546875 216.925781 194.039062 216.097656 194.503906 215.257812 C 194.972656 214.417969 195.421875 213.566406 195.84375 212.703125 C 196.269531 211.839844 196.671875 210.96875 197.054688 210.085938 C 197.433594 209.203125 197.792969 208.308594 198.128906 207.410156 C 198.464844 206.507812 198.777344 205.597656 199.066406 204.679688 C 199.355469 203.765625 199.621094 202.839844 199.863281 201.910156 C 200.105469 200.980469 200.328125 200.042969 200.519531 199.101562 C 200.714844 198.160156 200.886719 197.214844 201.035156 196.261719 C 201.183594 195.3125 201.304688 194.359375 201.402344 193.402344 C 201.503906 192.445312 201.578125 191.488281 201.625 190.527344 C 201.675781 189.566406 201.703125 188.605469 201.703125 187.644531 C 201.707031 186.683594 201.683594 185.722656 201.636719 184.761719 C 201.589844 183.800781 201.515625 182.84375 201.421875 181.886719 C 201.324219 180.929688 201.203125 179.976562 201.058594 179.023438 C 200.914062 178.074219 200.746094 177.125 200.554688 176.183594 C 200.363281 175.242188 200.144531 174.304688 199.90625 173.375 C 199.667969 172.441406 199.402344 171.519531 199.117188 170.601562 C 198.828125 169.683594 198.519531 168.773438 198.1875 167.871094 C 197.855469 166.96875 197.496094 166.074219 197.121094 165.191406 C 196.742188 164.304688 196.339844 163.433594 195.917969 162.570312 C 195.496094 161.703125 195.050781 160.851562 194.585938 160.011719 C 194.121094 159.167969 193.632812 158.339844 193.125 157.523438 C 192.617188 156.707031 192.089844 155.902344 191.539062 155.113281 C 190.992188 154.324219 190.421875 153.550781 189.835938 152.789062 C 189.246094 152.027344 188.640625 151.28125 188.015625 150.550781 C 187.390625 149.820312 186.746094 149.105469 186.082031 148.410156 C 185.421875 147.710938 184.742188 147.03125 184.046875 146.367188 C 183.347656 145.707031 182.636719 145.0625 181.90625 144.433594 C 181.175781 143.808594 180.433594 143.199219 179.671875 142.609375 C 178.914062 142.019531 178.136719 141.449219 177.347656 140.902344 C 176.558594 140.351562 175.757812 139.820312 174.941406 139.3125 C 174.125 138.804688 173.296875 138.316406 172.457031 137.847656 C 171.617188 137.382812 170.765625 136.9375 169.902344 136.511719 C 169.039062 136.085938 168.164062 135.6875 167.28125 135.304688 C 166.398438 134.925781 165.503906 134.570312 164.601562 134.234375 C 163.703125 133.902344 162.792969 133.589844 161.875 133.300781 C 160.957031 133.011719 160.03125 132.75 159.101562 132.507812 C 158.171875 132.265625 157.234375 132.046875 156.292969 131.855469 C 155.351562 131.660156 154.40625 131.492188 153.453125 131.34375 C 152.503906 131.199219 151.550781 131.078125 150.59375 130.980469 C 149.636719 130.882812 148.679688 130.808594 147.71875 130.761719 C 146.757812 130.710938 145.796875 130.6875 144.835938 130.6875 Z M 144.835938 130.6875 " fill-opacity="1" fill-rule="nonzero"/><path fill="#f8f6f9" d="M 170.394531 165.730469 L 135.351562 200.773438 L 119.273438 184.6875 C 119.085938 184.496094 118.878906 184.328125 118.65625 184.179688 C 118.433594 184.03125 118.199219 183.90625 117.953125 183.804688 C 117.707031 183.703125 117.453125 183.625 117.191406 183.574219 C 116.929688 183.523438 116.664062 183.496094 116.398438 183.496094 C 116.128906 183.496094 115.867188 183.523438 115.605469 183.574219 C 115.34375 183.628906 115.089844 183.703125 114.839844 183.808594 C 114.59375 183.910156 114.359375 184.035156 114.140625 184.183594 C 113.917969 184.332031 113.710938 184.5 113.523438 184.6875 C 113.332031 184.875 113.164062 185.082031 113.015625 185.304688 C 112.867188 185.527344 112.742188 185.761719 112.640625 186.007812 C 112.539062 186.253906 112.460938 186.507812 112.410156 186.769531 C 112.359375 187.03125 112.332031 187.296875 112.332031 187.5625 C 112.332031 187.828125 112.355469 188.09375 112.410156 188.355469 C 112.460938 188.617188 112.539062 188.871094 112.640625 189.117188 C 112.742188 189.367188 112.867188 189.601562 113.015625 189.820312 C 113.164062 190.042969 113.332031 190.25 113.519531 190.4375 L 132.476562 209.394531 C 132.664062 209.582031 132.871094 209.753906 133.09375 209.902344 C 133.3125 210.050781 133.546875 210.175781 133.796875 210.277344 C 134.042969 210.378906 134.296875 210.457031 134.558594 210.507812 C 134.820312 210.5625 135.085938 210.585938 135.351562 210.585938 C 135.621094 210.585938 135.882812 210.5625 136.144531 210.507812 C 136.40625 210.457031 136.664062 210.378906 136.910156 210.277344 C 137.15625 210.175781 137.390625 210.050781 137.613281 209.902344 C 137.835938 209.753906 138.039062 209.582031 138.230469 209.394531 L 176.148438 171.476562 C 176.335938 171.285156 176.503906 171.082031 176.652344 170.859375 C 176.800781 170.636719 176.925781 170.402344 177.027344 170.15625 C 177.128906 169.910156 177.207031 169.65625 177.257812 169.394531 C 177.3125 169.132812 177.335938 168.867188 177.335938 168.601562 C 177.335938 168.332031 177.308594 168.070312 177.257812 167.808594 C 177.207031 167.546875 177.128906 167.289062 177.027344 167.042969 C 176.921875 166.796875 176.796875 166.5625 176.648438 166.34375 C 176.5 166.121094 176.332031 165.914062 176.144531 165.726562 C 175.953125 165.539062 175.75 165.371094 175.527344 165.222656 C 175.304688 165.074219 175.070312 164.949219 174.824219 164.847656 C 174.578125 164.742188 174.324219 164.667969 174.0625 164.617188 C 173.800781 164.5625 173.535156 164.539062 173.269531 164.539062 C 173.003906 164.539062 172.738281 164.5625 172.476562 164.617188 C 172.214844 164.667969 171.960938 164.746094 171.714844 164.847656 C 171.46875 164.949219 171.234375 165.074219 171.011719 165.222656 C 170.789062 165.371094 170.585938 165.542969 170.394531 165.730469 Z M 170.394531 165.730469 " fill-opacity="1" fill-rule="nonzero"/></svg>